<svg width="24" height="24" viewBox="0 0 24 24" fill="none" xmlns="http://www.w3.org/2000/svg">
<path fill-rule="evenodd" clip-rule="evenodd" d="M5.38545 20.2058C5.20656 20.779 5.39369 21.3796 5.86121 21.7349C6.09498 21.9115 6.36277 21.9997 6.63 21.9997C6.89834 21.9997 7.16612 21.9115 7.39934 21.7338L12 18.2435L16.6001 21.7338C17.0671 22.088 17.6707 22.0891 18.1388 21.7349C18.6063 21.3796 18.7934 20.779 18.6145 20.2058L16.8575 14.5583L21.4581 11.0657C21.9251 10.7115 22.1117 10.112 21.9333 9.53772C21.755 8.9646 21.2661 8.59321 20.6888 8.59321H15.0022L13.2451 2.94565C13.0662 2.37138 12.5778 2 12 2C11.4222 2 10.9338 2.37138 10.7549 2.94565L8.99783 8.59321H3.31121C2.73393 8.59321 2.245 8.9646 2.06666 9.53772C1.88832 10.112 2.07489 10.7115 2.54187 11.0657L7.14253 14.5583L5.38545 20.2058ZM3.20256 10.1166C3.11256 10.0478 3.1164 9.96183 3.13561 9.90108C3.15427 9.83918 3.20036 9.76697 3.31121 9.76697H9.40609C9.64973 9.76697 9.86539 9.60305 9.94057 9.3612L11.8239 3.30787C11.893 3.0855 12.107 3.0855 12.1761 3.30787L14.0594 9.3612C14.1346 9.60305 14.3503 9.76697 14.5939 9.76697H20.6888C20.7996 9.76697 20.8457 9.83918 20.8644 9.90108C20.8836 9.96183 20.8874 10.0478 20.7974 10.1166L15.8664 13.8591C15.6694 14.0081 15.5871 14.2729 15.6623 14.5147L17.5456 20.5681C17.5802 20.6792 17.528 20.7469 17.4781 20.7847C17.4293 20.8237 17.3508 20.8546 17.2613 20.7847L12.3303 17.0433C12.1328 16.8943 11.8672 16.8943 11.6697 17.0433L6.73811 20.7847C6.64866 20.8546 6.57019 20.8237 6.5219 20.7847C6.47196 20.7469 6.41983 20.6792 6.45441 20.5681L8.33769 14.5147C8.41287 14.2729 8.33056 14.0081 8.13356 13.8591L3.20256 10.1166Z" fill="#EC0000"/>
</svg>
