<?xml version="1.0" encoding="utf-8"?>
<!-- Generator: Adobe Illustrator 22.0.1, SVG Export Plug-In . SVG Version: 6.00 Build 0)  -->
<svg version="1.1" id="Capa_1" xmlns="http://www.w3.org/2000/svg" xmlns:xlink="http://www.w3.org/1999/xlink" x="0px" y="0px"
	 viewBox="0 0 25 22" style="enable-background:new 0 0 25 22;" xml:space="preserve">
<style type="text/css">
	.st0{fill:none;stroke:#EC0000;stroke-linecap:round;stroke-linejoin:round;}
	.st1{fill:none;stroke:#EC0000;stroke-linecap:square;stroke-linejoin:round;}
	.st2{fill:#FFFFFF;}
	.st3{fill:none;stroke:#EB0000;stroke-linecap:round;stroke-linejoin:round;}
</style>
<title>Group 13</title>
<desc>Created with Sketch.</desc>
<g id="Móvil">
	<g id="Mobile-Copy-9" transform="translate(-74.000000, -223.000000)">
		<g id="Group-26" transform="translate(75.000000, 222.000000)">
			<g id="Group-13" transform="translate(0.000000, 2.000000)">
				<path id="Stroke-1" class="st0" d="M6.3,0.1V5c0,0.5,0.1,0.9,0.3,1.2c0.2,0.3,0.5,0.5,0.8,0.6c0.7,0.2,1.5,0.3,2.3,0.4L19,8.9"
					/>
				<path id="Stroke-3" class="st1" d="M19,8.4c0-0.6-0.1-1.1-0.4-1.6C18,5.7,17.2,4.7,16.4,4C13.8,1.6,9.6,0,3.8,0H2.5
					C1.9,0,1.3,0.6,1.3,1.3v8.8c0,0-0.3,0.1-0.4,0.1c-0.3,0.1-0.5,0.3-0.7,0.5C0.1,10.9,0,11.2,0,11.6v5.7h2.7l0.9,1.6h15.2l0.9-1.6
					h1.8v-4.8c0-0.5-0.1-1-0.2-1.4c-0.3-1-1.1-1.9-2.1-2.3c-0.1,0-0.2-0.1-0.2-0.1V8.4z"/>
				<path id="Fill-5" class="st2" d="M22.8,17.1c0,1.7-1.4,3.2-3.2,3.2s-3.2-1.4-3.2-3.2s1.4-3.2,3.2-3.2S22.8,15.3,22.8,17.1"/>
				<path id="Stroke-7" class="st3" d="M22.8,17.1c0,1.7-1.4,3.2-3.2,3.2s-3.2-1.4-3.2-3.2s1.4-3.2,3.2-3.2S22.8,15.3,22.8,17.1z"/>
				<path id="Fill-9" class="st2" d="M6.3,17.1c0,1.7-1.4,3.2-3.2,3.2S0,18.8,0,17.1s1.4-3.2,3.2-3.2S6.3,15.3,6.3,17.1"/>
				<path id="Stroke-11" class="st3" d="M6.3,17.1c0,1.7-1.4,3.2-3.2,3.2S0,18.8,0,17.1s1.4-3.2,3.2-3.2S6.3,15.3,6.3,17.1z"/>
			</g>
		</g>
	</g>
</g>
</svg>
