<?xml version="1.0" encoding="UTF-8"?>
<svg width="20px" height="20px" viewBox="0 0 20 20" version="1.1" xmlns="http://www.w3.org/2000/svg" xmlns:xlink="http://www.w3.org/1999/xlink">
    <title>a. linear/03. People &amp; Nature/a. People/03A010 - circle account user | 🔍 PEOPLE, profile, circle, account, user, perfil, circulo, usuario, cuenta</title>
    <defs>
        <filter id="filter-1">
            <feColorMatrix in="SourceGraphic" type="matrix" values="0 0 0 0 0.925490 0 0 0 0 0.000000 0 0 0 0 0.000000 0 0 0 1.000000 0"></feColorMatrix>
        </filter>
        <path d="M3.80277595,3.10804496 C8.32504253,-1.1116533 15.4163146,-1.03874725 19.8516678,3.34967103 C20.0487883,3.54470558 20.0495387,3.86290436 19.8533402,4.05886643 L19.8533402,4.05886643 L12.3209038,11.5817368 L19.8542908,19.1471856 C20.0274944,19.3211139 20.046217,19.590578 19.9108143,19.7851639 L19.8528144,19.8542908 C19.657145,20.0491448 19.3405632,20.0484838 19.1457092,19.8528144 L19.1457092,19.8528144 L11.6129038,12.2887368 L4.08234023,19.8108664 C3.90874331,19.9842542 3.63944536,20.0034442 3.44466414,19.8684876 L3.37544661,19.8106534 L3.3413608,19.7761802 L3.30862502,19.7438091 C-1.03333446,15.3317032 -1.0941584,8.31308176 3.09567281,3.8158162 L1.77265966,2.49336631 C1.57727992,2.29822183 1.57708921,1.9816394 1.77223369,1.78625966 C1.96737817,1.59087992 2.2839606,1.59068921 2.47934034,1.78583369 L2.47934034,1.78583369 Z M3.34593478,5.04821668 L3.32695225,5.07148851 C0.0954830653,9.07126773 0.22414249,14.8962006 3.7366265,18.7428017 L3.7366265,18.7428017 L7.65840613,14.8265492 C5.20605468,12.3142828 3.63223128,8.69655954 3.34593478,5.04821668 Z M4.30639631,4.28813529 L4.31748015,4.57901686 C4.49954769,8.12454881 5.99780864,11.6890932 8.36562922,14.1194552 L11.2579038,11.2287368 L11.2640298,11.2238989 L14.1151894,8.37638925 C11.6601627,5.9797398 7.92601567,4.44209696 4.30639631,4.28813529 Z M18.7824781,3.71507653 C14.9112139,0.227575974 9.09011836,0.102784999 5.06730781,3.33615228 C8.70029121,3.65978069 12.3503692,5.25099937 14.8234921,7.67037101 Z" id="path-2"></path>
    </defs>
    <g id="Page-1" stroke="none" stroke-width="1" fill="none" fill-rule="evenodd">
        <g id="icon-color" transform="translate(-2.000000, -2.000000)" filter="url(#filter-1)">
            <g transform="translate(2.000000, 2.000000)">
                <mask id="mask-3" fill="white">
                    <use xlink:href="#path-2"></use>
                </mask>
                <use id="Icon-color" fill="#EC0000" xlink:href="#path-2"></use>
            </g>
        </g>
    </g>
</svg>